name C:\Users\u0101727\Documents\MyRepositories\upper-imu-dc\Results\main_tracking\Case_22\SHRUG01_angularVelocities_groundFrame.mot
datacolumns 4
datarows 82
range 0.71000000 1.52000000
endheader 
time	radius_imu_x	radius_imu_y	radius_imu_z	
          0.71000000	          0.05925719	          0.65396438	         -0.16919223	
          0.72000000	         -0.09633819	          0.63244367	         -0.15236220	
          0.73000000	         -0.20117620	          0.62020330	         -0.14263459	
          0.74000000	         -0.26825700	          0.59684934	         -0.13350268	
          0.75000000	         -0.30727637	          0.54341681	         -0.11804530	
          0.76000000	         -0.32521549	          0.44339829	         -0.08880456	
          0.77000000	         -0.32723871	          0.28496863	         -0.03847762	
          0.78000000	         -0.31664033	          0.05944867	          0.04014230	
          0.79000000	         -0.29422199	         -0.24147566	          0.15377149	
          0.80000000	         -0.25832076	         -0.62359052	          0.30573056	
          0.81000000	         -0.20622107	         -1.07989249	          0.48980010	
          0.82000000	         -0.13891748	         -1.55818788	          0.67307610	
          0.83000000	         -0.06660684	         -1.93220279	          0.78463001	
          0.84000000	         -0.04745111	         -1.74219778	          0.58306585	
          0.85000000	         -0.09736556	         -0.78969938	         -0.00242369	
          0.86000000	         -0.14207990	         -0.10134888	         -0.43873473	
          0.87000000	         -0.10256250	         -0.19817277	         -0.41967329	
          0.88000000	         -0.06564635	         -0.65386492	         -0.17536454	
          0.89000000	          0.00534006	         -1.22422808	          0.17157214	
          0.90000000	          0.02340699	         -1.43138768	          0.35559617	
          0.91000000	         -0.06242201	         -0.78441799	          0.13335744	
          0.92000000	         -0.15192318	         -0.08899408	         -0.08604501	
          0.93000000	         -0.18118252	          0.02693877	         -0.01100006	
          0.94000000	         -0.18988027	          0.02054471	          0.11784568	
          0.95000000	         -0.23180865	          0.10343054	          0.20192068	
          0.96000000	         -0.26142902	          0.18465340	          0.27338902	
          0.97000000	         -0.27544908	          0.35329740	          0.23034879	
          0.98000000	         -0.29708704	          0.72336919	          0.03105984	
          0.99000000	         -0.35209999	          1.40300908	         -0.35072961	
          1.00000000	         -0.41729891	          1.96925851	         -0.70140799	
          1.01000000	         -0.43389649	          1.98950869	         -0.77073636	
          1.02000000	         -0.41645203	          1.66046030	         -0.64401527	
          1.03000000	         -0.39005659	          1.19705229	         -0.42751221	
          1.04000000	         -0.35998032	          0.68014495	         -0.15851417	
          1.05000000	         -0.32637284	          0.15405125	          0.14046126	
          1.06000000	         -0.28828779	         -0.34519465	          0.44681222	
          1.07000000	         -0.24867176	         -0.75469976	          0.71774585	
          1.08000000	         -0.21935662	         -0.94954287	          0.86898616	
          1.09000000	         -0.23123105	         -0.68636083	          0.74612424	
          1.10000000	         -0.34150772	          0.39608274	          0.17983095	
          1.11000000	         -0.40150649	          1.50524089	         -0.53386862	
          1.12000000	         -0.42024630	          1.90249192	         -0.75475972	
          1.13000000	         -0.38610721	          1.80938675	         -0.66410939	
          1.14000000	         -0.33702432	          1.50520499	         -0.44800091	
          1.15000000	         -0.28932024	          1.12957162	         -0.20114038	
          1.16000000	         -0.25171302	          0.76360697	          0.02344997	
          1.17000000	         -0.22770319	          0.44854976	          0.20307366	
          1.18000000	         -0.21824091	          0.20463602	          0.33140547	
          1.19000000	         -0.22280282	          0.03943681	          0.41104642	
          1.20000000	         -0.23992662	         -0.04766491	          0.44878877	
          1.21000000	         -0.26740966	         -0.06339295	          0.45299081	
          1.22000000	         -0.30242475	         -0.01928133	          0.43214115	
          1.23000000	         -0.34168908	          0.06967476	          0.39408830	
          1.24000000	         -0.38170356	          0.18657313	          0.34567498	
          1.25000000	         -0.41900065	          0.31408344	          0.29267258	
          1.26000000	         -0.45032719	          0.43555176	          0.23991978	
          1.27000000	         -0.47273818	          0.53568860	          0.19152024	
          1.28000000	         -0.48365605	          0.60109249	          0.15094493	
          1.29000000	         -0.48101381	          0.62102998	          0.12091216	
          1.30000000	         -0.46358888	          0.58876752	          0.10299452	
          1.31000000	         -0.43148432	          0.50318756	          0.09709759	
          1.32000000	         -0.38652969	          0.36984672	          0.10113552	
          1.33000000	         -0.33235745	          0.20072273	          0.11115198	
          1.34000000	         -0.27404094	          0.01248387	          0.12191256	
          1.35000000	         -0.21733655	         -0.17631071	          0.12783510	
          1.36000000	         -0.16773360	         -0.34825562	          0.12401371	
          1.37000000	         -0.12958114	         -0.48958493	          0.10708864	
          1.38000000	         -0.10547496	         -0.59172328	          0.07582196	
          1.39000000	         -0.09594286	         -0.65195930	          0.03137963	
          1.40000000	         -0.09942562	         -0.67330290	         -0.02275537	
          1.41000000	         -0.11256427	         -0.66356616	         -0.08132687	
          1.42000000	         -0.13080752	         -0.63376646	         -0.13820008	
          1.43000000	         -0.14927816	         -0.59595694	         -0.18742727	
          1.44000000	         -0.16371230	         -0.56082161	         -0.22431496	
          1.45000000	         -0.17125940	         -0.53557811	         -0.24634732	
          1.46000000	         -0.17088838	         -0.52300220	         -0.25356596	
          1.47000000	         -0.16333573	         -0.52131383	         -0.24858962	
          1.48000000	         -0.15055163	         -0.52814538	         -0.23443754	
          1.49000000	         -0.13354148	         -0.54689041	         -0.20995083	
          1.50000000	         -0.11529123	         -0.56775491	         -0.18230213	
          1.51000000	         -0.09806875	         -0.57941859	         -0.15873249	
          1.52000000	         -0.07905244	         -0.58967761	         -0.13480139	
